<svg width="248" height="244" viewBox="0 0 248 244" fill="none" xmlns="http://www.w3.org/2000/svg">
<path d="M38 35.5L124 1L211 37.5L247 122L211.5 206L124 243L36.5 207L1 122.5L38 35.5Z" fill="white"/>
<path d="M38 35.5L124 1L211 37.5L247 122L211.5 206L124 243L36.5 207L1 122.5L38 35.5Z" stroke="black"/>
<path d="M38 35.5L124 1L211 37.5L247 122L211.5 206L124 243L36.5 207L1 122.5L38 35.5Z" stroke="black" stroke-opacity="0.2"/>
<path d="M39 121L63.5 71L86.5 109L123.5 43L161.5 109L183 72L207.5 123L182 171L161 134L123.5 199L85.5 134L64 171L39 121Z" fill="#1E1E1E"/>
<circle cx="123" cy="121" r="25" fill="white"/>
</svg>
