<svg width="896" height="244" viewBox="0 0 896 244" fill="none" xmlns="http://www.w3.org/2000/svg">
<path d="M338.008 170L311.94 78.076H334.676L351.336 144.912L369.564 79.448H389.164L407.392 145.108L424.052 78.076H446.788L420.72 170H395.632L379.364 112.18L363.096 170H338.008ZM447.742 124.136C447.742 96.892 465.578 76.116 492.038 76.116C517.322 76.116 533.786 95.716 533.786 120.412C533.786 123.548 533.59 126.684 532.806 129.82H469.694C471.654 142.952 479.886 151.968 493.606 151.968C503.014 151.968 511.05 147.656 516.93 137.856L532.022 150.204C523.986 164.708 507.914 171.96 493.018 171.96C466.754 171.96 447.742 151.38 447.742 124.136ZM492.038 95.52C479.886 95.52 472.634 103.752 470.282 115.12H512.03C511.246 103.752 502.622 95.52 492.038 95.52ZM538.285 152.948L579.837 97.088H539.265V78.076H604.729V95.128L563.373 150.988H607.277V170H538.285V152.948ZM610.07 124.136C610.07 96.892 627.906 76.116 654.366 76.116C679.65 76.116 696.114 95.716 696.114 120.412C696.114 123.548 695.918 126.684 695.134 129.82H632.022C633.982 142.952 642.214 151.968 655.934 151.968C665.342 151.968 673.378 147.656 679.258 137.856L694.35 150.204C686.314 164.708 670.242 171.96 655.346 171.96C629.082 171.96 610.07 151.38 610.07 124.136ZM654.366 95.52C642.214 95.52 634.962 103.752 632.61 115.12H674.358C673.574 103.752 664.95 95.52 654.366 95.52ZM707.842 170V78.076H729.206L729.598 90.032C733.714 81.212 742.534 76.116 751.354 76.116C754.49 76.116 760.37 76.9 763.114 78.468L761.154 99.048C758.606 97.48 754.686 96.696 750.57 96.696C740.378 96.696 729.99 102.968 729.99 121.784V170H707.842ZM760.913 124.136C760.913 96.696 779.729 76.116 806.777 76.116C833.629 76.116 852.641 96.696 852.641 124.136C852.641 151.38 833.629 171.96 806.777 171.96C779.729 171.96 760.913 151.38 760.913 124.136ZM806.777 151.38C820.693 151.38 830.689 139.62 830.689 124.332C830.689 108.456 820.693 96.696 806.777 96.696C792.665 96.696 782.669 108.456 782.669 124.332C782.669 139.62 792.665 151.38 806.777 151.38Z" fill="white"/>
<path d="M38 35.5L124 1L211 37.5L247 122L211.5 206L124 243L36.5 207L1 122.5L38 35.5Z" fill="white"/>
<path d="M38 35.5L124 1L211 37.5L247 122L211.5 206L124 243L36.5 207L1 122.5L38 35.5Z" stroke="black"/>
<path d="M38 35.5L124 1L211 37.5L247 122L211.5 206L124 243L36.5 207L1 122.5L38 35.5Z" stroke="black" stroke-opacity="0.2"/>
<path d="M39 121L63.5 71L86.5 109L123.5 43L161.5 109L183 72L207.5 123L182 171L161 134L123.5 199L85.5 134L64 171L39 121Z" fill="#1E1E1E"/>
<circle cx="123" cy="121" r="25" fill="white"/>
</svg>
