<svg width="587" height="186" viewBox="0 0 587 186" fill="none" xmlns="http://www.w3.org/2000/svg">
<path d="M29.008 141L2.94 49.076H25.676L42.336 115.912L60.564 50.448H80.164L98.392 116.108L115.052 49.076H137.788L111.72 141H86.632L70.364 83.18L54.096 141H29.008ZM138.742 95.136C138.742 67.892 156.578 47.116 183.038 47.116C208.322 47.116 224.786 66.716 224.786 91.412C224.786 94.548 224.59 97.684 223.806 100.82H160.694C162.654 113.952 170.886 122.968 184.606 122.968C194.014 122.968 202.05 118.656 207.93 108.856L223.022 121.204C214.986 135.708 198.914 142.96 184.018 142.96C157.754 142.96 138.742 122.38 138.742 95.136ZM183.038 66.52C170.886 66.52 163.634 74.752 161.282 86.12H203.03C202.246 74.752 193.622 66.52 183.038 66.52ZM229.285 123.948L270.837 68.088H230.265V49.076H295.729V66.128L254.373 121.988H298.277V141H229.285V123.948ZM301.07 95.136C301.07 67.892 318.906 47.116 345.366 47.116C370.65 47.116 387.114 66.716 387.114 91.412C387.114 94.548 386.918 97.684 386.134 100.82H323.022C324.982 113.952 333.214 122.968 346.934 122.968C356.342 122.968 364.378 118.656 370.258 108.856L385.35 121.204C377.314 135.708 361.242 142.96 346.346 142.96C320.082 142.96 301.07 122.38 301.07 95.136ZM345.366 66.52C333.214 66.52 325.962 74.752 323.61 86.12H365.358C364.574 74.752 355.95 66.52 345.366 66.52ZM398.842 141V49.076H420.206L420.598 61.032C424.714 52.212 433.534 47.116 442.354 47.116C445.49 47.116 451.37 47.9 454.114 49.468L452.154 70.048C449.606 68.48 445.686 67.696 441.57 67.696C431.378 67.696 420.99 73.968 420.99 92.784V141H398.842ZM451.913 95.136C451.913 67.696 470.729 47.116 497.777 47.116C524.629 47.116 543.641 67.696 543.641 95.136C543.641 122.38 524.629 142.96 497.777 142.96C470.729 142.96 451.913 122.38 451.913 95.136ZM497.777 122.38C511.693 122.38 521.689 110.62 521.689 95.332C521.689 79.456 511.693 67.696 497.777 67.696C483.665 67.696 473.669 79.456 473.669 95.332C473.669 110.62 483.665 122.38 497.777 122.38Z" fill="white"/>
</svg>
